# Blender v2.80 (sub 46) OBJ File: 'cranefly.blend'
# www.blender.org
mtllib cranefly.mtl
o Cube
v 0.167574 0.131171 -1.000000
v 0.167574 -0.131171 -1.000000
v 0.167574 0.131171 1.000000
v 0.167574 -0.131171 1.000000
v -0.167574 0.131171 -1.000000
v -0.167574 -0.131171 -1.000000
v -0.167574 0.131171 1.000000
v -0.167574 -0.131171 1.000000
v 0.167574 -0.000256 -0.406317
v 0.167574 -0.000323 -0.335024
v 0.167574 -0.068902 -0.333080
v 0.167574 -0.062535 -0.426095
v 0.167574 -0.076373 -0.173129
v 0.167574 -0.080136 -0.092573
v 0.167574 -0.006568 -0.171141
v 0.167574 -0.020919 -0.088413
v 0.167574 -0.088797 0.092845
v 0.167574 -0.093245 0.188070
v 0.167574 -0.029453 0.101233
v 0.167574 -0.039931 0.191933
v 0.572160 -0.000256 -0.406317
v 0.572160 -0.000323 -0.335024
v 0.572160 -0.068902 -0.333080
v 0.572160 -0.062535 -0.426095
v 0.572160 -0.076373 -0.173129
v 0.572160 -0.080136 -0.092573
v 0.572160 -0.006568 -0.171141
v 0.572160 -0.020919 -0.088413
v 0.572160 -0.088797 0.092845
v 0.572160 -0.093245 0.188070
v 0.572160 -0.029453 0.101233
v 0.572160 -0.039931 0.191933
v -0.167574 -0.021192 -0.316416
v -0.167574 -0.036003 -0.418347
v -0.167574 -0.088896 -0.408473
v -0.167574 -0.081635 -0.339813
v -0.167574 -0.023044 -0.155372
v -0.167574 -0.081515 -0.174458
v -0.167574 -0.071655 -0.062777
v -0.167574 -0.017840 -0.067828
v -0.167574 -0.012354 0.079753
v -0.167574 -0.073950 0.077340
v -0.167574 -0.068917 0.161809
v -0.167574 -0.016987 0.159322
v -0.167574 -0.021192 -0.316416
v -0.167574 -0.036003 -0.418347
v -0.167574 -0.088896 -0.408473
v -0.167574 -0.081635 -0.339813
v -0.167574 -0.023044 -0.155372
v -0.167574 -0.081515 -0.174458
v -0.167574 -0.071655 -0.062777
v -0.167574 -0.017840 -0.067828
v -0.167574 -0.012354 0.079753
v -0.167574 -0.073950 0.077340
v -0.167574 -0.068917 0.161809
v -0.167574 -0.016987 0.159322
v -0.547404 -0.088896 -0.408473
v -0.547404 -0.081635 -0.339813
v -0.547404 -0.036003 -0.418347
v -0.547404 -0.021192 -0.316416
v -0.547404 -0.023044 -0.155372
v -0.547404 -0.081515 -0.174458
v -0.547404 -0.071655 -0.062777
v -0.547404 -0.017840 -0.067828
v -0.547404 -0.012354 0.079753
v -0.547404 -0.073950 0.077340
v -0.547404 -0.068917 0.161809
v -0.547404 -0.016987 0.159322
vt 0.375000 0.000000
vt 0.625000 0.000000
vt 0.625000 0.250000
vt 0.375000 0.250000
vt 0.375000 0.250000
vt 0.625000 0.250000
vt 0.625000 0.500000
vt 0.375000 0.500000
vt 0.625000 0.750000
vt 0.375000 0.750000
vt 0.465690 0.677293
vt 0.479805 0.664552
vt 0.478040 0.644421
vt 0.482999 0.633478
vt 0.488227 0.615031
vt 0.483812 0.605085
vt 0.434325 0.604774
vt 0.625000 0.750000
vt 0.625000 1.000000
vt 0.375000 1.000000
vt 0.125000 0.500000
vt 0.190407 0.571738
vt 0.184340 0.583365
vt 0.177220 0.603359
vt 0.173634 0.613428
vt 0.165380 0.636606
vt 0.161142 0.648509
vt 0.125000 0.750000
vt 0.625000 0.500000
vt 0.875000 0.500000
vt 0.875000 0.750000
vt 0.249756 0.574210
vt 0.249692 0.583122
vt 0.184340 0.583365
vt 0.190407 0.571738
vt 0.211948 0.648992
vt 0.221933 0.637654
vt 0.230065 0.613948
vt 0.243741 0.603607
vt 0.249692 0.583122
vt 0.249756 0.574210
vt 0.375000 0.500000
vt 0.375000 0.750000
vt 0.211948 0.648992
vt 0.221933 0.637654
vt 0.173634 0.613428
vt 0.230065 0.613948
vt 0.177220 0.603359
vt 0.243741 0.603607
vt 0.165380 0.636606
vt 0.161142 0.648509
vt 0.431716 0.632847
vt 0.482999 0.633478
vt 0.482999 0.633478
vt 0.431716 0.632847
vt 0.429529 0.615333
vt 0.429529 0.615333
vt 0.488227 0.615031
vt 0.431716 0.632847
vt 0.422206 0.667477
vt 0.479805 0.664552
vt 0.422206 0.667477
vt 0.422320 0.646807
vt 0.415286 0.676059
vt 0.483812 0.605085
vt 0.465690 0.677293
vt 0.415286 0.676059
vt 0.415286 0.676059
vt 0.465690 0.677293
vt 0.434325 0.604774
vt 0.434325 0.604774
vt 0.429529 0.615333
vt 0.478040 0.644421
vt 0.422320 0.646807
vt 0.483812 0.605085
vt 0.488227 0.615031
vt 0.478040 0.644421
vt 0.422320 0.646807
vt 0.422206 0.667477
vt 0.479805 0.664552
vn 0.0000 1.0000 0.0000
vn 0.0000 0.0000 1.0000
vn -1.0000 0.0000 0.0000
vn 0.0000 -1.0000 0.0000
vn 1.0000 0.0000 0.0000
vn 0.0000 0.0000 -1.0000
vn 0.0000 0.9934 0.1148
vn 0.0000 -0.0701 0.9975
vn 0.0000 -0.9977 -0.0683
vn 0.0000 0.3027 -0.9531
vn 0.0000 0.0285 -0.9996
vn 0.0000 1.0000 0.0010
vn 0.0000 -0.9989 -0.0467
vn 0.0000 -0.0723 0.9974
vn 0.0000 0.0283 0.9996
vn 0.0000 0.9853 0.1709
vn 0.0000 0.1400 -0.9902
vn 0.0000 0.0934 0.9956
vn 0.0000 -0.1835 -0.9830
vn 0.0000 -0.9982 0.0595
vn 0.0000 -0.3610 0.9326
vn 0.0000 0.0478 0.9989
vn 0.0000 0.9982 -0.0593
vn 0.0000 0.3103 -0.9506
vn 0.0000 0.9983 0.0581
vn 0.0000 0.9896 -0.1438
vn 0.0000 0.0391 -0.9992
vn 0.0000 -0.9945 0.1052
vn 0.0000 -0.9961 0.0879
usemtl Material.001
s off
f 1/1/1 5/2/1 7/3/1 3/4/1
f 4/5/2 3/6/2 7/7/2 8/8/2
f 8/8/3 7/7/3 5/9/3 6/10/3 34/11/3 33/12/3 37/13/3 40/14/3 41/15/3 44/16/3 43/17/3
f 6/10/4 2/18/4 4/19/4 8/20/4
f 2/21/5 12/22/5 11/23/5 13/24/5 14/25/5 17/26/5 18/27/5 4/28/5
f 6/29/6 5/30/6 1/31/6 2/18/6
f 21/32/5 22/33/5 23/34/5 24/35/5
f 4/28/5 18/27/5 20/36/5 19/37/5 17/26/5 14/25/5 16/38/5 15/39/5 13/24/5 11/23/5 10/40/5 9/41/5 12/22/5 2/21/5 1/42/5 3/43/5
f 19/37/7 20/36/7 32/44/7 31/45/7
f 16/38/8 14/25/8 26/46/8 28/47/8
f 11/23/9 12/22/9 24/35/9 23/34/9
f 25/48/5 27/49/5 28/47/5 26/46/5
f 29/50/5 31/45/5 32/44/5 30/51/5
f 12/22/10 9/41/10 21/32/10 24/35/10
f 13/24/11 15/39/11 27/49/11 25/48/11
f 9/41/12 10/40/12 22/33/12 21/32/12
f 14/25/13 13/24/13 25/48/13 26/46/13
f 20/36/14 18/27/14 30/51/14 32/44/14
f 10/40/15 11/23/15 23/34/15 22/33/15
f 15/39/16 16/38/16 28/47/16 27/49/16
f 17/26/17 19/37/17 31/45/17 29/50/17
f 18/27/13 17/26/13 29/50/13 30/51/13
f 51/52/18 52/53/18 64/54/18 63/55/18
f 41/15/2 42/56/2 54/57/2 53/58/2
f 42/56/3 41/15/3 40/14/3 39/59/3
f 36/60/2 33/12/2 45/61/2 48/62/2
f 38/63/3 37/13/3 33/12/3
f 38/63/3 33/12/3 36/60/3 35/64/3 34/11/3 6/10/3 8/8/3 43/17/3 42/56/3 39/59/3
f 44/16/2 41/15/2 53/58/2 56/65/2
f 46/66/19 47/67/19 57/68/19 59/69/19
f 54/57/20 55/70/20 67/71/20 66/72/20
f 33/12/2 34/11/2 46/66/2 45/61/2
f 39/59/2 40/14/2 52/53/2 51/52/2
f 42/56/2 43/17/2 55/70/2 54/57/2
f 34/11/2 35/64/2 47/67/2 46/66/2
f 40/14/2 37/13/2 49/73/2 52/53/2
f 37/13/2 38/63/2 50/74/2 49/73/2
f 43/17/2 44/16/2 56/65/2 55/70/2
f 35/64/2 36/60/2 48/62/2 47/67/2
f 38/63/2 39/59/2 51/52/2 50/74/2
f 67/71/3 68/75/3 65/76/3 66/72/3
f 63/55/3 64/54/3 61/77/3 62/78/3
f 57/68/3 58/79/3 60/80/3 59/69/3
f 48/62/21 45/61/21 60/80/21 58/79/21
f 55/70/22 56/65/22 68/75/22 67/71/22
f 52/53/23 49/73/23 61/77/23 64/54/23
f 49/73/24 50/74/24 62/78/24 61/77/24
f 56/65/25 53/58/25 65/76/25 68/75/25
f 45/61/26 46/66/26 59/69/26 60/80/26
f 53/58/27 54/57/27 66/72/27 65/76/27
f 47/67/28 48/62/28 58/79/28 57/68/28
f 50/74/29 51/52/29 63/55/29 62/78/29
o Cube.001
v -0.193208 -0.205077 -1.050219
v -0.193208 0.205077 -1.050219
v -0.193208 -0.205077 -0.673151
v -0.193208 0.205077 -0.673151
v 0.193208 -0.205077 -1.050219
v 0.193208 0.205077 -1.050219
v 0.193208 -0.205077 -0.673151
v 0.193208 0.205077 -0.673151
v 0.097690 0.170574 -1.050219
v 0.129513 0.175190 -1.050219
v 0.144937 0.143107 -1.050219
v 0.088733 0.136896 -1.050219
v -0.096750 0.173396 -1.050219
v -0.090884 0.145847 -1.050219
v -0.124491 0.138127 -1.050219
v -0.125716 0.167247 -1.050219
v 0.097690 0.170574 -1.396018
v 0.129513 0.175190 -1.396018
v 0.144937 0.143107 -1.396018
v 0.088733 0.136896 -1.396018
v -0.096750 0.173396 -1.396018
v -0.090884 0.145847 -1.396018
v -0.124491 0.138127 -1.396018
v -0.125716 0.167247 -1.396018
vt 0.375000 0.000000
vt 0.625000 0.000000
vt 0.625000 0.250000
vt 0.375000 0.250000
vt 0.625000 0.500000
vt 0.375000 0.500000
vt 0.625000 0.750000
vt 0.375000 0.750000
vt 0.587227 0.781230
vt 0.583442 0.817592
vt 0.588898 0.933800
vt 0.584192 0.955542
vt 0.601941 0.956335
vt 0.625000 1.000000
vt 0.375000 1.000000
vt 0.125000 0.500000
vt 0.125000 0.750000
vt 0.875000 0.500000
vt 0.875000 0.750000
vt 0.605690 0.937594
vt 0.601941 0.956335
vt 0.584192 0.955542
vt 0.588898 0.933800
vt 0.605690 0.937594
vt 0.603969 0.811797
vt 0.606783 0.791209
vt 0.606783 0.791209
vt 0.587227 0.781230
vt 0.603969 0.811797
vt 0.583442 0.817592
vn 1.0000 0.0000 0.0000
vn 0.0000 0.0000 -1.0000
vn -1.0000 0.0000 0.0000
vn 0.0000 0.0000 1.0000
vn 0.0000 1.0000 0.0000
vn 0.0000 -1.0000 0.0000
vn 0.2077 -0.9782 0.0000
vn -0.9013 -0.4333 0.0000
vn -0.2239 0.9746 0.0000
vn -0.1098 0.9940 0.0000
vn 0.1436 -0.9896 0.0000
vn 0.9991 0.0420 0.0000
vn -0.9781 -0.2082 0.0000
vn 0.9664 -0.2570 0.0000
usemtl Material.001
s off
f 69/81/30 70/82/30 72/83/30 71/84/30
f 71/84/31 72/83/31 76/85/31 75/86/31
f 75/86/32 76/85/32 74/87/32 73/88/32
f 73/88/33 74/87/33 79/89/33 80/90/33 82/91/33 83/92/33 84/93/33 70/94/33 69/95/33
f 71/96/34 75/86/34 73/88/34 69/97/34
f 76/85/35 72/98/35 70/99/35 74/87/35
f 89/100/33 92/101/33 91/102/33 90/103/33
f 70/94/33 84/93/33 81/104/33
f 81/104/36 84/93/36 92/101/36 89/100/36
f 81/104/33 82/91/33 80/90/33
f 81/104/33 80/90/33 77/105/33
f 79/89/37 78/106/37 86/107/37 87/108/37
f 78/106/33 79/89/33 74/87/33 70/94/33 81/104/33 77/105/33
f 85/109/33 88/110/33 87/108/33 86/107/33
f 83/92/38 82/91/38 90/103/38 91/102/38
f 80/90/39 79/89/39 87/108/39 88/110/39
f 78/106/40 77/105/40 85/109/40 86/107/40
f 84/93/41 83/92/41 91/102/41 92/101/41
f 82/91/42 81/104/42 89/100/42 90/103/42
f 77/105/43 80/90/43 88/110/43 85/109/43
o Cube.002
v -0.037991 0.102913 -0.578527
v -0.037991 0.183667 -0.578527
v -0.009950 0.102913 0.467226
v -0.009950 0.183667 0.467226
v -0.644631 0.102913 0.484244
v -0.644631 0.183667 0.484244
vt 0.375000 0.000000
vt 0.625000 0.000000
vt 0.625000 0.250000
vt 0.375000 0.250000
vt 0.625000 0.500000
vt 0.375000 0.500000
vt 0.125000 0.500000
vt 0.125000 0.750000
vt 0.875000 0.750000
vt 0.875000 0.500000
vt 0.625000 1.000000
vn 0.9996 0.0000 -0.0268
vn 0.0268 0.0000 0.9996
vn 0.0000 -1.0000 0.0000
vn 0.0000 1.0000 0.0000
vn -0.8685 0.0000 -0.4957
usemtl None
s off
f 93/111/44 94/112/44 96/113/44 95/114/44
f 95/114/45 96/113/45 98/115/45 97/116/45
f 95/117/46 97/116/46 93/118/46
f 94/119/47 98/115/47 96/120/47
f 97/116/48 98/115/48 94/121/48 93/118/48
o Cube.003
v 0.053948 0.183809 -0.588818
v 0.053948 0.103056 -0.588818
v 0.025907 0.183809 0.456935
v 0.025907 0.103056 0.456935
v 0.660588 0.183809 0.473953
v 0.660588 0.103056 0.473953
vt 0.375000 0.000000
vt 0.625000 0.000000
vt 0.625000 0.250000
vt 0.375000 0.250000
vt 0.625000 0.500000
vt 0.375000 0.500000
vt 0.125000 0.500000
vt 0.125000 0.750000
vt 0.875000 0.750000
vt 0.875000 0.500000
vt 0.625000 1.000000
vn -0.9996 0.0000 -0.0268
vn -0.0268 0.0000 0.9996
vn 0.0000 1.0000 -0.0000
vn -0.0000 -1.0000 0.0000
vn 0.8685 0.0000 -0.4957
usemtl None
s off
f 99/122/49 100/123/49 102/124/49 101/125/49
f 101/125/50 102/124/50 104/126/50 103/127/50
f 101/128/51 103/127/51 99/129/51
f 100/130/52 104/126/52 102/131/52
f 103/127/53 104/126/53 100/132/53 99/129/53
