# Blender v2.80 (sub 46) OBJ File: 'woolybear.blend'
# www.blender.org
mtllib woolybear.mtl
o Cube
v 1.376542 0.435573 -0.537828
v 1.376542 -0.435573 -0.537828
v 1.376542 0.435573 0.537828
v 1.376542 -0.435573 0.537828
v 0.392428 0.435573 -0.537828
v 0.392428 -0.435573 -0.537828
v 0.392428 0.435573 0.537828
v 0.392428 -0.435573 0.537828
v 2.247804 0.435573 -0.537828
v 2.247804 -0.435573 -0.537828
v 2.247804 0.435573 0.537828
v 2.247804 -0.435573 0.537828
v 2.948457 0.435573 -0.537828
v 2.948457 -0.435573 -0.537828
v 2.948457 0.435573 0.537828
v 2.948457 -0.435573 0.537828
vt 0.375000 0.000000
vt 0.625000 0.000000
vt 0.625000 0.250000
vt 0.375000 0.250000
vt 0.375000 0.250000
vt 0.625000 0.250000
vt 0.625000 0.500000
vt 0.375000 0.500000
vt 0.625000 0.750000
vt 0.375000 0.750000
vt 0.625000 0.750000
vt 0.625000 1.000000
vt 0.375000 1.000000
vt 0.625000 0.500000
vt 0.875000 0.500000
vt 0.875000 0.750000
vt 0.625000 0.750000
vt 0.875000 0.750000
vt 0.875000 0.750000
vt 0.625000 0.750000
vt 0.125000 0.500000
vt 0.375000 0.500000
vt 0.375000 0.750000
vt 0.125000 0.750000
vt 0.625000 1.000000
vt 0.625000 1.000000
vt 0.625000 0.250000
vt 0.375000 0.250000
vt 0.375000 0.250000
vt 0.625000 0.250000
vt 0.375000 0.000000
vt 0.375000 0.250000
vt 0.375000 0.250000
vt 0.375000 0.000000
vn 0.0000 1.0000 0.0000
vn 0.0000 0.0000 1.0000
vn -1.0000 0.0000 0.0000
vn 0.0000 -1.0000 0.0000
vn 0.0000 0.0000 -1.0000
vn 1.0000 0.0000 0.0000
usemtl Material
s off
f 1/1/1 5/2/1 7/3/1 3/4/1
f 4/5/2 3/6/2 7/7/2 8/8/2
f 8/8/3 7/7/3 5/9/3 6/10/3
f 6/10/4 2/11/4 4/12/4 8/13/4
f 6/14/5 5/15/5 1/16/5 2/11/5
f 10/17/5 9/18/5 13/19/5 14/20/5
f 14/21/6 13/22/6 15/23/6 16/24/6
f 12/25/4 10/17/4 14/20/4 16/26/4
f 11/27/2 12/28/2 16/29/2 15/30/2
f 9/31/1 11/32/1 15/33/1 13/34/1
usemtl Material.001
f 3/6/2 4/5/2 12/28/2 11/27/2
f 2/11/5 1/16/5 9/18/5 10/17/5
f 4/12/4 2/11/4 10/17/4 12/25/4
f 1/1/1 3/4/1 11/32/1 9/31/1
